<svg xmlns="http://www.w3.org/2000/svg" viewBox="0 0 64 64"><defs><radialGradient id="fire" cx="0.5" cy="0.95" r="1"><stop offset="0" stop-color="#ffe066"/><stop offset="0.3" stop-color="#ff9a1f"/><stop offset="0.65" stop-color="#c2200a"/><stop offset="1" stop-color="#5e0d05"/></radialGradient><clipPath id="clip"><rect x="4" y="4" width="56" height="56" rx="14"/></clipPath></defs><g clip-path="url(#clip)"><rect x="4" y="4" width="56" height="56" fill="url(#fire)"/><path d="M4 60c2-10 7-12 8-21 2 8 8 10 9 18 3-9 8-11 11-20 3 9 8 11 11 20 1-8 7-10 9-18 1 9 6 11 8 21z" fill="#ff9a1f" opacity="0.9"/><path d="M8 60c1-7 5-9 6-16 2 6 6 8 7 14 2-7 6-8 8-15 2 7 6 8 8 15 1-6 5-8 7-14 1 7 5 9 6 16z" fill="#ffd24d" opacity="0.85"/><path d="M44.5 10 57.5 29 50.5 29 50.5 53 38.5 53 38.5 29 31.5 29Z" fill="#e02a1a" stroke="#8f1207" stroke-width="1"/><g fill="#140d06"><circle cx="27" cy="19.5" r="4.9"/><rect x="24.8" y="23" width="4.6" height="6.5"/><path d="M21 31Q27 27 33 31L35.5 52H18.5Z"/><path d="M22 31Q16.5 26 14.5 15.5" fill="none" stroke="#140d06" stroke-width="5.6" stroke-linecap="round"/><path d="M32 31Q37.5 26 39.5 15.5" fill="none" stroke="#140d06" stroke-width="5.6" stroke-linecap="round"/><circle cx="13.9" cy="13.8" r="3.4"/><circle cx="40.1" cy="13.8" r="3.4"/></g></g></svg>
